<?xml version="1.0" encoding="UTF-8" standalone="no"?>
<!-- Created with Inkscape (http://www.inkscape.org/) -->

<svg
   xmlns:dc="http://purl.org/dc/elements/1.1/"
   xmlns:cc="http://creativecommons.org/ns#"
   xmlns:rdf="http://www.w3.org/1999/02/22-rdf-syntax-ns#"
   xmlns:svg="http://www.w3.org/2000/svg"
   xmlns="http://www.w3.org/2000/svg"
   xmlns:sodipodi="http://sodipodi.sourceforge.net/DTD/sodipodi-0.dtd"
   xmlns:inkscape="http://www.inkscape.org/namespaces/inkscape"
   id="svg4190"
   version="1.1"
   inkscape:version="0.91 r13725"
   width="225.45114pt"
   height="221.75085pt"
   viewBox="0 0 281.81393 277.18857"
   sodipodi:docname="logo-white.svg"
   inkscape:export-filename="/home/connor/Downloads/logo1000.png"
   inkscape:export-xdpi="319.49368"
   inkscape:export-ydpi="319.49368">
  <metadata
     id="metadata4196">
    <rdf:RDF>
      <cc:Work
         rdf:about="">
        <dc:format>image/svg+xml</dc:format>
        <dc:type
           rdf:resource="http://purl.org/dc/dcmitype/StillImage" />
        <dc:title></dc:title>
      </cc:Work>
    </rdf:RDF>
  </metadata>
  <defs
     id="defs4194" />
  <sodipodi:namedview
     pagecolor="#ffffff"
     bordercolor="#666666"
     borderopacity="1"
     objecttolerance="10"
     gridtolerance="10"
     guidetolerance="10"
     inkscape:pageopacity="0"
     inkscape:pageshadow="2"
     inkscape:window-width="1920"
     inkscape:window-height="1031"
     id="namedview4192"
     showgrid="false"
     fit-margin-top="0.1"
     fit-margin-left="0.1"
     fit-margin-right="0.1"
     fit-margin-bottom="0.1"
     units="pt"
     inkscape:zoom="2.718292"
     inkscape:cx="90.415545"
     inkscape:cy="149.1216"
     inkscape:window-x="0"
     inkscape:window-y="25"
     inkscape:window-maximized="1"
     inkscape:current-layer="svg4190" />
  <path
     style="fill:#ffffff;fill-opacity:1"
     d="m 129.64088,267.80913 c -7.03603,-0.72198 -20.45316,-3.30165 -26.21101,-5.0395 -16.444316,-4.96327 -35.060865,-14.77968 -46.586361,-24.56475 -3.725914,-3.16328 -14.664484,-13.97072 -18.329635,-18.10989 -2.519475,-2.84534 -9.47337,-12.44271 -9.47337,-13.07461 0,-0.23185 -0.653969,-1.28103 -1.453264,-2.33151 -1.883065,-2.47484 -9.363618,-17.46484 -9.733495,-19.50459 -0.156394,-0.86246 -0.49708,-1.84649 -0.757083,-2.18674 -0.505067,-0.66095 -2.389351,-6.30788 -3.910311,-11.71864 -5.1292813,-18.24723 -5.584118,-42.11676 -1.149023,-60.29999 0.804908,-3.3 1.688408,-6.945 1.963335,-8.1 1.075739,-4.519298 5.886957,-16.471723 8.815425,-21.900001 0.534088,-0.99 1.535724,-2.88 2.225857,-4.2 2.185348,-4.179857 10.344227,-16.071341 13.37834,-19.498793 8.97384,-10.137198 18.677202,-19.083167 26.02022,-23.989221 2.145,-1.433129 4.622964,-3.095746 5.50659,-3.694706 4.422919,-2.998045 15.938713,-8.762194 22.993411,-11.509187 5.892492,-2.294447 16.937194,-5.682274 19.799994,-6.073403 0.99,-0.135258 4.23,-0.672143 7.2,-1.193076 13.92744,-2.4428521 27.46129,-2.4275281 42.00001,0.04756 2.97,0.505615 6.21,1.02591 7.2,1.156211 2.89519,0.381055 17.00413,4.783388 21.9,6.833332 5.28174,2.211512 16.82739,7.995336 19.11015,9.573277 0.87441,0.604436 3.57047,2.383611 5.99122,3.953721 2.42075,1.570111 4.85075,3.300882 5.4,3.846157 0.54925,0.545276 2.88863,2.512074 5.19863,4.370663 8.9079,7.167157 20.53186,20.493564 26.84564,30.777468 13.00175,21.177275 19.20191,42.846558 19.22771,67.199988 0.0412,38.83966 -17.24558,74.61435 -48.27357,99.90162 -9.95579,8.11379 -19.84631,14.04266 -31.96722,19.16272 -6.35469,2.68432 -20.17405,7.15827 -23.43256,7.58619 -0.66,0.0867 -4.70549,0.738 -8.98998,1.44741 -8.54079,1.41414 -22.65725,1.93804 -30.50965,1.13229 z m 31.09963,-11.55452 c 13.17987,-2.46587 25.81611,-6.47593 34.92396,-11.08299 4.27644,-2.16316 13.63347,-7.63084 15.09133,-8.81844 0.54159,-0.44119 3.27971,-2.46964 6.08471,-4.50768 12.97847,-9.42981 27.987,-28.29139 35.15706,-44.1827 2.19063,-4.85518 6.84068,-18.10882 7.12061,-20.29526 0.12762,-0.99678 0.63651,-3.562 1.13085,-5.70048 3.10161,-13.41716 3.11159,-31.2378 0.0258,-46.0854 -0.5261,-2.53152 -1.0807,-5.27775 -1.23242,-6.10275 -1.13536,-6.1737 -7.83534,-22.464085 -12.2657,-29.822971 -9.08089,-15.083435 -18.16862,-25.4068 -30.38214,-34.513101 -3.21914,-2.40016 -6.37663,-4.836427 -7.01665,-5.413927 -0.64003,-0.5775 -1.35518,-1.05 -1.58923,-1.05 -0.23405,0 -2.27563,-1.126709 -4.53686,-2.503796 -14.22836,-8.665074 -34.29702,-14.85979 -52.62212,-16.243189 -42.3999,-3.200855 -82.923255,14.851829 -107.500811,47.89037 -2.963617,3.983856 -6.173008,8.573855 -7.13198,10.199999 -3.353166,5.685996 -9.738106,19.243217 -10.247381,21.758397 -0.111167,0.549018 -0.879395,3.058448 -1.707174,5.576518 -0.827779,2.51807 -1.668173,5.62307 -1.867542,6.9 -0.199369,1.27693 -0.822387,4.7517 -1.384484,7.7217 -0.764297,4.03838 -1.025504,8.72839 -1.035914,18.6 -0.01526,14.47275 1.158109,23.62409 4.253256,33.17194 0.825158,2.54543 1.592483,5.03305 1.705168,5.52805 0.112684,0.495 1.170415,3.195 2.350512,6 8.46119,20.1116 21.560979,36.94817 38.863869,49.95 3.842694,2.8875 7.144951,5.25 7.338349,5.25 0.193392,0 1.903914,0.99299 3.801162,2.20664 3.976692,2.54386 16.58742,8.60277 18.704388,8.98665 0.787074,0.14272 2.13717,0.62432 3.00021,1.07021 1.380842,0.71342 5.596162,2.07093 7.711032,2.48328 0.40802,0.0796 3.67833,0.84679 7.26734,1.70496 3.58902,0.85817 8.92518,1.80894 11.85814,2.11283 7.54353,0.78159 28.30316,0.3018 34.13266,-0.78886 z m -39.65703,-5.02449 c -1.10023,-0.18408 -1.34017,-0.86149 -1.92358,-5.43076 -0.66313,-5.1937 -2.35286,-17.28904 -5.21368,-37.32046 -0.82476,-5.775 -1.76105,-12.795 -2.08064,-15.6 -0.3196,-2.805 -1.24634,-9.555 -2.05943,-15 -0.81309,-5.445 -1.62376,-11.385 -1.80149,-13.2 -0.17773,-1.815 -1.00503,-7.82194 -1.83843,-13.34876 -0.83342,-5.52683 -1.66384,-11.57836 -1.8454,-13.44786 -0.18155,-1.8695 -0.96916,-7.60755 -1.75023,-12.75123 -0.78107,-5.14368 -1.58902,-10.83714 -1.79543,-12.65214 -0.44556,-3.91772 -3.308516,-24.781291 -5.76335,-42 -0.96447,-6.765 -1.909668,-13.92 -2.100438,-15.9 -0.19077,-1.98 -0.86976,-6.903033 -1.508862,-10.940074 -0.639108,-4.037041 -1.162014,-7.592842 -1.162014,-7.901781 0,-0.308937 1.4175,-1.024129 3.15,-1.589315 1.7325,-0.565185 3.429534,-1.246836 3.771186,-1.514778 0.663144,-0.520079 13.620128,-4.822129 13.827898,-4.591216 0.0679,0.07544 0.44922,2.702165 0.84742,5.837165 0.39819,3.135 1.49796,10.964999 2.44392,17.399999 0.94596,6.435 1.88277,13.185 2.0818,15 0.3729,3.400608 3.0167,22.335305 5.10723,36.57754 1.09956,7.49108 1.80259,9.79041 2.71461,8.8784 0.39558,-0.39559 2.46814,-10.66753 2.93657,-14.554108 0.15922,-1.32101 0.94684,-5.641833 1.75027,-9.601833 0.80343,-3.96 1.61514,-8.28 1.8038,-9.6 0.33438,-2.339562 2.29161,-13.264277 5.75091,-32.099999 0.9394,-5.114999 2.18214,-12.067499 2.76164,-15.449999 l 1.05363,-6.15 1.95913,0 c 2.29362,0 2.24491,-0.111509 3.53846,8.1 0.51984,3.3 1.72522,10.724999 2.67861,16.499999 0.95339,5.775 2.00233,12.255 2.33097,14.4 0.32865,2.145 1.29544,8.085 2.14844,13.199999 0.853,5.115 2.3858,14.43 3.40623,20.700003 1.02043,6.269998 1.96891,12.007498 2.10773,12.749998 0.38911,2.08114 2.63151,1.82464 2.62271,-0.3 -0.004,-0.9075 0.78868,-5.835 1.761,-10.949998 2.90885,-15.302469 5.49115,-29.559206 5.77351,-31.875224 0.14586,-1.196376 0.9401,-5.62725 1.76498,-9.846384 0.82488,-4.21914 1.66504,-8.910289 1.86701,-10.424778 0.20197,-1.514488 0.97057,-5.858615 1.708,-9.653615 l 1.34079,-6.9 1.97068,0.162441 c 1.67679,0.138218 8.95669,2.856585 13.70403,5.117189 1.71642,0.817336 2.1467,-3.006964 -4.67154,41.520368 -0.96009,6.27 -1.91595,12.885 -2.12415,14.7 -0.20818,1.815 -1.0223,7.215003 -1.80914,12.000001 -0.78684,4.785 -1.58807,10.185 -1.78052,12 -0.19244,1.815 -1.00503,7.35 -1.80576,12.3 -0.80072,4.95 -1.60953,10.35 -1.79735,12 -0.18782,1.65 -1.13051,8.13 -2.09487,14.39999 -2.31652,15.06141 -5.22251,34.65252 -5.69595,38.4 -0.20845,1.65 -1.02121,6.915 -1.80612,11.7 -0.78491,4.785 -1.59356,10.32 -1.797,12.3 -0.20343,1.98 -1.14136,8.325 -2.08429,14.1 -0.94293,5.775 -1.90018,12.39 -2.12722,14.7 -0.49252,5.01115 -1.08161,6.3 -2.8795,6.3 -1.01856,0 -1.37958,-0.38121 -1.47711,-1.55976 -0.071,-0.85786 -0.78939,-5.51536 -1.59643,-10.35 -0.80703,-4.83463 -1.61727,-10.00524 -1.80053,-11.49024 -0.18326,-1.485 -1.15516,-7.83 -2.15979,-14.1 -3.68101,-22.97371 -5.34805,-33.64807 -5.57536,-35.7 -0.12794,-1.155 -0.99909,-6.6225 -1.93587,-12.15 -1.40915,-8.31465 -1.87652,-10.05 -2.70667,-10.05 -0.95815,0 -1.4016,1.6079 -2.12785,7.71542 -0.0926,0.77848 -1.00443,5.77348 -2.02635,11.1 -1.02194,5.32652 -2.64249,13.86958 -3.60125,18.98458 -0.95877,5.115 -2.56208,13.62 -3.56293,18.9 -1.00085,5.28 -1.97882,10.68 -2.17327,12 -0.19445,1.32 -1.11365,6.18 -2.04266,10.8 -0.92901,4.62 -1.87328,9.94825 -2.09838,11.84055 -0.44223,3.71749 -0.58683,3.92781 -2.48233,3.61067 z M 86.640506,239.71396 C 81.006008,237.16013 72.922964,231.7925 66.317119,226.218 c -2.762862,-2.3315 -5.660244,-4.73039 -6.438624,-5.33085 -0.778379,-0.60047 -3.871152,-3.97547 -6.872828,-7.5 -3.001676,-3.52454 -5.985435,-6.99528 -6.630576,-7.71276 -4.673071,-5.19709 -16.288909,-28.14148 -17.592796,-34.75049 -0.124241,-0.62975 -0.925724,-3.828 -1.781072,-7.10723 -1.975736,-7.57457 -2.460719,-12.54868 -2.460719,-25.23776 0,-12.91058 0.45899,-17.71758 2.406187,-25.2 0.85878,-3.3 1.67646,-6.54 1.817067,-7.2 0.871035,-4.08858 7.401775,-18.624847 11.514968,-25.630273 5.462773,-9.303983 15.195789,-20.597351 24.323515,-28.222948 6.236442,-5.210128 13.664821,-10.646778 14.547241,-10.646778 0.206148,0 1.573728,-0.824874 3.039066,-1.833054 1.90698,-1.312035 2.74086,-1.610482 2.933772,-1.05 0.533538,1.55014 0.01056,20.230409 -0.581814,20.782085 -0.33,0.30732 -3.03,2.566398 -6,5.020176 -13.491157,11.146217 -26.203705,29.574485 -31.260363,45.315392 -2.728801,8.49451 -3.840979,16.24376 -3.833644,26.71145 0.01413,20.16617 3.821697,36.48691 12.143987,52.05394 2.967361,5.55052 11.026447,15.1073 12.031543,16.09185 5.496881,5.3845 12.204026,11.54562 21.308544,18.08325 l -0.190067,17.81179 z M 234.48546,100.39345 c -0.54816,-0.989998 -4.67534,-7.396463 -5.46208,-8.841029 -1.59452,-2.927736 -6.5385,-9.574674 -7.96194,-10.704432 -1.30775,-1.037928 -3.42734,-0.939006 -3.85674,0.179994 -0.49865,1.29945 -0.372,56.810997 0.12777,57.310767 8.37668,-0.13934 31.65921,0.40654 40.63335,0.40654 0,0 0.0518,5.44054 -0.28487,8.41744 -0.33669,2.97691 -1.28729,7.95759 -1.28729,7.95759 -22.60456,-0.51801 -31.74243,-0.96707 -38.55487,-0.91704 -0.0372,5.91842 0.23283,19.24455 -0.17136,19.64874 -0.14036,0.14035 -0.25445,11.75004 -0.25356,25.79931 l 0.002,25.54411 -6.84668,4.99173 c -3.76567,2.74545 -8.35005,5.84617 -10.18748,6.89047 l -3.3408,1.89875 0,-100.19875 -4e-4,0 c 0,-55.109297 0.2025,-100.107182 0.45,-99.995292 6.72528,3.040393 19.6871,12.68627 27.18227,20.228384 5.30681,5.34006 13.77199,15.898751 16.15831,20.154401 4.28278,7.6377 6.36313,11.725938 8.44506,16.595979"
     id="path4200"
     inkscape:connector-curvature="0"
     sodipodi:nodetypes="sssssssssssssssssssssssssssssscssssssssscsssssssssssssssssssssscssssssssssssssssssscsssscssssscssssssscssssscssscsssssssssssssssssscssssssssssssssssssssssssssssccscssscczcccccsscccsssc" />
</svg>
